<mxfile host="app.diagrams.net" modified="2021-07-30T12:17:34.595Z" agent="5.0 (Windows NT 10.0; Win64; x64) AppleWebKit/537.36 (KHTML, like Gecko) Chrome/92.0.4515.107 Safari/537.36" etag="DokIaMSQCjKCIzYAhzhJ" version="14.9.3" type="github">
  <diagram id="C5RBs43oDa-KdzZeNtuy" name="Page-1">
    <mxGraphModel dx="1022" dy="507" grid="1" gridSize="10" guides="1" tooltips="1" connect="1" arrows="1" fold="1" page="1" pageScale="1" pageWidth="827" pageHeight="1169" math="0" shadow="0">
      <root>
        <mxCell id="WIyWlLk6GJQsqaUBKTNV-0" />
        <mxCell id="D6cESIWzLXefJHGsaKA6-20" value="Untitled Layer" style="locked=1;" parent="WIyWlLk6GJQsqaUBKTNV-0" />
        <mxCell id="D6cESIWzLXefJHGsaKA6-42" value="" style="rounded=1;whiteSpace=wrap;html=1;absoluteArcSize=1;arcSize=14;strokeWidth=2;shadow=1;fillColor=#FFFFFF;strokeColor=#33FF33;dashed=1;" parent="D6cESIWzLXefJHGsaKA6-20" vertex="1">
          <mxGeometry x="400" y="220" width="410" height="340" as="geometry" />
        </mxCell>
        <mxCell id="D6cESIWzLXefJHGsaKA6-21" value="Code" style="swimlane;shadow=1;fillColor=none;" parent="D6cESIWzLXefJHGsaKA6-20" vertex="1">
          <mxGeometry x="370" y="60" width="450" height="630" as="geometry" />
        </mxCell>
        <mxCell id="D6cESIWzLXefJHGsaKA6-43" value="" style="rounded=1;whiteSpace=wrap;html=1;absoluteArcSize=1;arcSize=14;strokeWidth=2;shadow=1;fillColor=#FFFFFF;strokeColor=#FF6666;dashed=1;" parent="D6cESIWzLXefJHGsaKA6-21" vertex="1">
          <mxGeometry x="40" y="220" width="390" height="210" as="geometry" />
        </mxCell>
        <mxCell id="D6cESIWzLXefJHGsaKA6-22" value="&lt;div&gt;&lt;span style=&quot;font-size: 18px&quot;&gt;async function sevenpair_4p(Pairs: number) {&lt;/span&gt;&lt;/div&gt;&lt;div&gt;&lt;span style=&quot;font-size: 18px&quot;&gt;&lt;br&gt;&lt;/span&gt;&lt;/div&gt;&lt;div&gt;&lt;span style=&quot;font-size: 18px&quot;&gt;&amp;nbsp; &amp;nbsp; let Round = 0,&lt;/span&gt;&lt;/div&gt;&lt;div&gt;&lt;span style=&quot;font-size: 18px&quot;&gt;&amp;nbsp; &amp;nbsp; &amp;nbsp; &amp;nbsp; Prob = 0,&lt;/span&gt;&lt;/div&gt;&lt;div&gt;&lt;span style=&quot;font-size: 18px&quot;&gt;&amp;nbsp; &amp;nbsp; &amp;nbsp; &amp;nbsp; Remain_tile = 123;&amp;nbsp;&lt;/span&gt;&lt;/div&gt;&lt;div&gt;&lt;span style=&quot;font-size: 18px&quot;&gt;&amp;nbsp; &amp;nbsp;&amp;nbsp;&lt;/span&gt;&lt;/div&gt;&lt;div&gt;&lt;span style=&quot;font-size: 18px&quot;&gt;&lt;br&gt;&lt;/span&gt;&lt;/div&gt;&lt;div&gt;&lt;span style=&quot;font-size: 18px&quot;&gt;&amp;nbsp; &amp;nbsp; while (Pairs &amp;lt; 7) {&lt;/span&gt;&lt;/div&gt;&lt;div&gt;&lt;br&gt;&lt;/div&gt;&lt;div&gt;&lt;span style=&quot;font-size: 18px&quot;&gt;&amp;nbsp; &amp;nbsp; &amp;nbsp; &amp;nbsp; do {&lt;/span&gt;&lt;/div&gt;&lt;div&gt;&lt;span style=&quot;font-size: 18px&quot;&gt;&amp;nbsp; &amp;nbsp; &amp;nbsp; &amp;nbsp; &amp;nbsp; &amp;nbsp; if (Remain_tile &amp;lt; 0) return false;&lt;/span&gt;&lt;/div&gt;&lt;div&gt;&lt;span style=&quot;font-size: 18px&quot;&gt;&amp;nbsp; &amp;nbsp; &amp;nbsp; &amp;nbsp; &amp;nbsp; &amp;nbsp; Prob = Pairs === 6&lt;/span&gt;&lt;/div&gt;&lt;div&gt;&lt;span style=&quot;font-size: 18px&quot;&gt;&amp;nbsp; &amp;nbsp; &amp;nbsp; &amp;nbsp; &amp;nbsp; &amp;nbsp; &amp;nbsp; &amp;nbsp; ? Prob = 1 - (1 - 2 / Remain_tile) ** 4&lt;/span&gt;&lt;/div&gt;&lt;div&gt;&lt;span style=&quot;font-size: 18px&quot;&gt;&amp;nbsp; &amp;nbsp; &amp;nbsp; &amp;nbsp; &amp;nbsp; &amp;nbsp; &amp;nbsp; &amp;nbsp; : 3 * (2 * (6 - Pairs) + 1) / (Remain_tile);&lt;/span&gt;&lt;/div&gt;&lt;div&gt;&lt;span style=&quot;font-size: 18px&quot;&gt;&amp;nbsp; &amp;nbsp; &amp;nbsp; &amp;nbsp; &amp;nbsp; &amp;nbsp;&amp;nbsp;&lt;/span&gt;&lt;/div&gt;&lt;div&gt;&lt;span style=&quot;font-size: 18px&quot;&gt;&amp;nbsp; &amp;nbsp; &amp;nbsp; &amp;nbsp; &amp;nbsp; &amp;nbsp; Remain_tile -= 4;&amp;nbsp;&lt;/span&gt;&lt;/div&gt;&lt;div&gt;&lt;span style=&quot;font-size: 18px&quot;&gt;&amp;nbsp; &amp;nbsp; &amp;nbsp; &amp;nbsp; &amp;nbsp; &amp;nbsp; Round++;&amp;nbsp;&lt;/span&gt;&lt;/div&gt;&lt;div&gt;&lt;span style=&quot;font-size: 18px&quot;&gt;&amp;nbsp; &amp;nbsp; &amp;nbsp; &amp;nbsp; } while (Prob &amp;lt; Math.random())&lt;/span&gt;&lt;/div&gt;&lt;div&gt;&lt;span style=&quot;font-size: 18px&quot;&gt;&lt;br&gt;&lt;/span&gt;&lt;/div&gt;&lt;div&gt;&lt;span style=&quot;font-size: 18px&quot;&gt;&amp;nbsp; &amp;nbsp; &amp;nbsp; &amp;nbsp; Pairs++&lt;/span&gt;&lt;/div&gt;&lt;div&gt;&lt;span style=&quot;font-size: 18px&quot;&gt;&amp;nbsp; &amp;nbsp; }&amp;nbsp; &amp;nbsp;&amp;nbsp;&lt;/span&gt;&lt;/div&gt;&lt;div&gt;&lt;span style=&quot;font-size: 18px&quot;&gt;&amp;nbsp; &amp;nbsp; return Round&lt;/span&gt;&lt;/div&gt;&lt;div&gt;&lt;span style=&quot;font-size: 18px&quot;&gt;&lt;br&gt;&lt;/span&gt;&lt;/div&gt;&lt;div&gt;&lt;span style=&quot;font-size: 18px&quot;&gt;}&lt;/span&gt;&lt;/div&gt;" style="text;html=1;align=left;verticalAlign=top;resizable=1;points=14&#xa;[];autosize=1;strokeColor=none;fillColor=none;" parent="D6cESIWzLXefJHGsaKA6-21" vertex="1">
          <mxGeometry x="30" y="30" width="410" height="390" as="geometry" />
        </mxCell>
        <mxCell id="D6cESIWzLXefJHGsaKA6-30" value="" style="rounded=1;whiteSpace=wrap;html=1;absoluteArcSize=1;arcSize=14;strokeWidth=2;shadow=1;fillColor=#FFFFFF;strokeColor=#33FF33;dashed=1;" parent="D6cESIWzLXefJHGsaKA6-20" vertex="1">
          <mxGeometry x="50" y="210" width="300" height="530" as="geometry" />
        </mxCell>
        <mxCell id="D6cESIWzLXefJHGsaKA6-27" value="" style="rounded=1;whiteSpace=wrap;html=1;absoluteArcSize=1;arcSize=14;strokeWidth=2;shadow=1;fillColor=#FFFFFF;strokeColor=#FF6666;dashed=1;" parent="D6cESIWzLXefJHGsaKA6-20" vertex="1">
          <mxGeometry x="110" y="310" width="190" height="250" as="geometry" />
        </mxCell>
        <mxCell id="D6cESIWzLXefJHGsaKA6-34" value="" style="shape=flexArrow;endArrow=classic;html=1;shadow=1;strokeColor=#FF3333;entryX=0.072;entryY=0.437;entryDx=0;entryDy=0;entryPerimeter=0;dashed=1;fillColor=#FF6666;" parent="D6cESIWzLXefJHGsaKA6-20" edge="1">
          <mxGeometry width="50" height="50" relative="1" as="geometry">
            <mxPoint x="300" y="395" as="sourcePoint" />
            <mxPoint x="421.90800000000036" y="395.54999999999995" as="targetPoint" />
            <Array as="points">
              <mxPoint x="360" y="395" />
            </Array>
          </mxGeometry>
        </mxCell>
        <mxCell id="D6cESIWzLXefJHGsaKA6-36" value="" style="shape=flexArrow;endArrow=classic;html=1;shadow=1;strokeColor=#33FF33;dashed=1;fillColor=#33FF33;" parent="D6cESIWzLXefJHGsaKA6-20" edge="1">
          <mxGeometry width="50" height="50" relative="1" as="geometry">
            <mxPoint x="340" y="450" as="sourcePoint" />
            <mxPoint x="388" y="450" as="targetPoint" />
            <Array as="points">
              <mxPoint x="370" y="450" />
            </Array>
          </mxGeometry>
        </mxCell>
        <mxCell id="D6cESIWzLXefJHGsaKA6-40" value="" style="html=1;shadow=0;dashed=0;align=center;verticalAlign=middle;shape=mxgraph.arrows2.arrow;dy=0.6;dx=40;notch=0;strokeColor=#000000;fillColor=#FFFFFF;dashed=1" parent="D6cESIWzLXefJHGsaKA6-20" vertex="1">
          <mxGeometry x="307" y="160" width="83" height="20" as="geometry" />
        </mxCell>
        <mxCell id="D6cESIWzLXefJHGsaKA6-44" value="" style="html=1;shadow=0;dashed=0;align=center;verticalAlign=middle;shape=mxgraph.arrows2.arrow;dy=0.6;dx=40;notch=0;strokeColor=#000000;fillColor=#FFFFFF;dashed=1" parent="D6cESIWzLXefJHGsaKA6-20" vertex="1">
          <mxGeometry x="300" y="100" width="83" height="20" as="geometry" />
        </mxCell>
        <mxCell id="WIyWlLk6GJQsqaUBKTNV-1" style="" parent="WIyWlLk6GJQsqaUBKTNV-0" />
        <mxCell id="WIyWlLk6GJQsqaUBKTNV-2" value="" style="rounded=0;html=1;jettySize=auto;orthogonalLoop=1;fontSize=11;endArrow=block;endFill=0;endSize=8;strokeWidth=1;shadow=0;labelBackgroundColor=none;edgeStyle=orthogonalEdgeStyle;" parent="WIyWlLk6GJQsqaUBKTNV-1" source="WIyWlLk6GJQsqaUBKTNV-3" edge="1">
          <mxGeometry relative="1" as="geometry">
            <mxPoint x="220" y="170" as="targetPoint" />
          </mxGeometry>
        </mxCell>
        <mxCell id="WIyWlLk6GJQsqaUBKTNV-3" value="開始 対子数を受け取る" style="rounded=1;whiteSpace=wrap;html=1;fontSize=12;glass=0;strokeWidth=1;shadow=0;" parent="WIyWlLk6GJQsqaUBKTNV-1" vertex="1">
          <mxGeometry x="160" y="80" width="120" height="40" as="geometry" />
        </mxCell>
        <mxCell id="lnPt1YEKnhMJoufO3QXM-5" style="edgeStyle=orthogonalEdgeStyle;rounded=0;orthogonalLoop=1;jettySize=auto;html=1;exitX=0.5;exitY=1;exitDx=0;exitDy=0;entryX=0.5;entryY=0;entryDx=0;entryDy=0;" parent="WIyWlLk6GJQsqaUBKTNV-1" source="lnPt1YEKnhMJoufO3QXM-1" target="lnPt1YEKnhMJoufO3QXM-2" edge="1">
          <mxGeometry relative="1" as="geometry">
            <Array as="points">
              <mxPoint x="220" y="240" />
              <mxPoint x="220" y="240" />
            </Array>
          </mxGeometry>
        </mxCell>
        <mxCell id="lnPt1YEKnhMJoufO3QXM-1" value="変数の定義と初期化&lt;br&gt;巡目: -1&lt;br&gt;確率: 0&lt;br&gt;山牌: 123" style="rounded=0;whiteSpace=wrap;html=1;" parent="WIyWlLk6GJQsqaUBKTNV-1" vertex="1">
          <mxGeometry x="160" y="140" width="120" height="60" as="geometry" />
        </mxCell>
        <mxCell id="BIZuQq8_NNaNUawFNkEd-7" style="edgeStyle=orthogonalEdgeStyle;rounded=0;orthogonalLoop=1;jettySize=auto;html=1;" edge="1" parent="WIyWlLk6GJQsqaUBKTNV-1" source="lnPt1YEKnhMJoufO3QXM-2" target="BIZuQq8_NNaNUawFNkEd-5">
          <mxGeometry relative="1" as="geometry" />
        </mxCell>
        <mxCell id="BIZuQq8_NNaNUawFNkEd-19" style="edgeStyle=orthogonalEdgeStyle;rounded=0;orthogonalLoop=1;jettySize=auto;html=1;exitX=1;exitY=0.5;exitDx=0;exitDy=0;" edge="1" parent="WIyWlLk6GJQsqaUBKTNV-1" source="lnPt1YEKnhMJoufO3QXM-2">
          <mxGeometry relative="1" as="geometry">
            <mxPoint x="200" y="670" as="targetPoint" />
            <Array as="points">
              <mxPoint x="310" y="275" />
              <mxPoint x="310" y="620" />
              <mxPoint x="200" y="620" />
            </Array>
          </mxGeometry>
        </mxCell>
        <mxCell id="lnPt1YEKnhMJoufO3QXM-2" value="対子数は7未満？" style="rhombus;whiteSpace=wrap;html=1;" parent="WIyWlLk6GJQsqaUBKTNV-1" vertex="1">
          <mxGeometry x="150" y="250" width="140" height="50" as="geometry" />
        </mxCell>
        <mxCell id="lnPt1YEKnhMJoufO3QXM-14" value="処理終了, 巡目を返す" style="rounded=1;whiteSpace=wrap;html=1;sketch=0;" parent="WIyWlLk6GJQsqaUBKTNV-1" vertex="1">
          <mxGeometry x="140" y="670" width="100" height="40" as="geometry" />
        </mxCell>
        <mxCell id="BIZuQq8_NNaNUawFNkEd-1" style="edgeStyle=orthogonalEdgeStyle;rounded=0;orthogonalLoop=1;jettySize=auto;html=1;exitX=0.5;exitY=1;exitDx=0;exitDy=0;entryX=0.5;entryY=0;entryDx=0;entryDy=0;" edge="1" parent="WIyWlLk6GJQsqaUBKTNV-1" source="lnPt1YEKnhMJoufO3QXM-16" target="lnPt1YEKnhMJoufO3QXM-18">
          <mxGeometry relative="1" as="geometry" />
        </mxCell>
        <mxCell id="lnPt1YEKnhMJoufO3QXM-16" value="有効牌を引く確率を計算" style="rounded=0;whiteSpace=wrap;html=1;sketch=0;" parent="WIyWlLk6GJQsqaUBKTNV-1" vertex="1">
          <mxGeometry x="155" y="410" width="120" height="30" as="geometry" />
        </mxCell>
        <mxCell id="BIZuQq8_NNaNUawFNkEd-2" style="edgeStyle=orthogonalEdgeStyle;rounded=0;orthogonalLoop=1;jettySize=auto;html=1;exitX=0.5;exitY=1;exitDx=0;exitDy=0;entryX=0.5;entryY=0;entryDx=0;entryDy=0;" edge="1" parent="WIyWlLk6GJQsqaUBKTNV-1" source="lnPt1YEKnhMJoufO3QXM-18" target="lnPt1YEKnhMJoufO3QXM-21">
          <mxGeometry relative="1" as="geometry" />
        </mxCell>
        <mxCell id="lnPt1YEKnhMJoufO3QXM-18" value="巡目を1増やす&lt;br&gt;山牌を4減らす" style="rounded=0;whiteSpace=wrap;html=1;sketch=0;" parent="WIyWlLk6GJQsqaUBKTNV-1" vertex="1">
          <mxGeometry x="160" y="460" width="120" height="30" as="geometry" />
        </mxCell>
        <mxCell id="lnPt1YEKnhMJoufO3QXM-28" value="" style="edgeStyle=orthogonalEdgeStyle;rounded=1;sketch=0;orthogonalLoop=1;jettySize=auto;html=1;" parent="WIyWlLk6GJQsqaUBKTNV-1" source="lnPt1YEKnhMJoufO3QXM-21" target="lnPt1YEKnhMJoufO3QXM-27" edge="1">
          <mxGeometry relative="1" as="geometry" />
        </mxCell>
        <mxCell id="lnPt1YEKnhMJoufO3QXM-30" style="edgeStyle=orthogonalEdgeStyle;rounded=1;sketch=0;orthogonalLoop=1;jettySize=auto;html=1;exitX=0;exitY=0.5;exitDx=0;exitDy=0;" parent="WIyWlLk6GJQsqaUBKTNV-1" source="lnPt1YEKnhMJoufO3QXM-21" edge="1">
          <mxGeometry relative="1" as="geometry">
            <mxPoint x="220" y="320" as="targetPoint" />
            <Array as="points">
              <mxPoint x="130" y="530" />
              <mxPoint x="130" y="320" />
            </Array>
          </mxGeometry>
        </mxCell>
        <mxCell id="lnPt1YEKnhMJoufO3QXM-21" value="確率抽選" style="rhombus;whiteSpace=wrap;html=1;rounded=0;sketch=0;" parent="WIyWlLk6GJQsqaUBKTNV-1" vertex="1">
          <mxGeometry x="165" y="510" width="110" height="40" as="geometry" />
        </mxCell>
        <mxCell id="lnPt1YEKnhMJoufO3QXM-31" style="edgeStyle=orthogonalEdgeStyle;rounded=1;sketch=0;orthogonalLoop=1;jettySize=auto;html=1;exitX=0.5;exitY=1;exitDx=0;exitDy=0;" parent="WIyWlLk6GJQsqaUBKTNV-1" source="lnPt1YEKnhMJoufO3QXM-27" edge="1">
          <mxGeometry relative="1" as="geometry">
            <mxPoint x="220" y="230" as="targetPoint" />
            <Array as="points">
              <mxPoint x="220" y="585" />
              <mxPoint x="80" y="585" />
              <mxPoint x="80" y="230" />
            </Array>
          </mxGeometry>
        </mxCell>
        <mxCell id="lnPt1YEKnhMJoufO3QXM-27" value="対子数を1加算" style="whiteSpace=wrap;html=1;rounded=0;sketch=0;" parent="WIyWlLk6GJQsqaUBKTNV-1" vertex="1">
          <mxGeometry x="160" y="570" width="120" height="30" as="geometry" />
        </mxCell>
        <mxCell id="lnPt1YEKnhMJoufO3QXM-34" value="No" style="text;html=1;strokeColor=none;fillColor=none;align=center;verticalAlign=middle;whiteSpace=wrap;rounded=0;sketch=0;" parent="WIyWlLk6GJQsqaUBKTNV-1" vertex="1">
          <mxGeometry x="250" y="240" width="40" height="20" as="geometry" />
        </mxCell>
        <mxCell id="lnPt1YEKnhMJoufO3QXM-36" value="No" style="text;html=1;strokeColor=none;fillColor=none;align=center;verticalAlign=middle;whiteSpace=wrap;rounded=0;sketch=0;" parent="WIyWlLk6GJQsqaUBKTNV-1" vertex="1">
          <mxGeometry x="125" y="530" width="40" height="20" as="geometry" />
        </mxCell>
        <mxCell id="lnPt1YEKnhMJoufO3QXM-37" value="　Yes" style="text;html=1;strokeColor=none;fillColor=none;align=center;verticalAlign=middle;whiteSpace=wrap;rounded=0;sketch=0;" parent="WIyWlLk6GJQsqaUBKTNV-1" vertex="1">
          <mxGeometry x="210" y="290" width="40" height="30" as="geometry" />
        </mxCell>
        <mxCell id="lnPt1YEKnhMJoufO3QXM-38" value="　Yes" style="text;html=1;strokeColor=none;fillColor=none;align=center;verticalAlign=middle;whiteSpace=wrap;rounded=0;sketch=0;" parent="WIyWlLk6GJQsqaUBKTNV-1" vertex="1">
          <mxGeometry x="220" y="540" width="40" height="20" as="geometry" />
        </mxCell>
        <mxCell id="BIZuQq8_NNaNUawFNkEd-9" style="edgeStyle=orthogonalEdgeStyle;rounded=0;orthogonalLoop=1;jettySize=auto;html=1;exitX=0.5;exitY=1;exitDx=0;exitDy=0;entryX=0.548;entryY=0.017;entryDx=0;entryDy=0;entryPerimeter=0;" edge="1" parent="WIyWlLk6GJQsqaUBKTNV-1" source="BIZuQq8_NNaNUawFNkEd-5" target="lnPt1YEKnhMJoufO3QXM-16">
          <mxGeometry relative="1" as="geometry">
            <mxPoint x="220" y="410" as="sourcePoint" />
          </mxGeometry>
        </mxCell>
        <mxCell id="BIZuQq8_NNaNUawFNkEd-10" style="edgeStyle=orthogonalEdgeStyle;rounded=0;orthogonalLoop=1;jettySize=auto;html=1;exitX=1;exitY=0.5;exitDx=0;exitDy=0;" edge="1" parent="WIyWlLk6GJQsqaUBKTNV-1" source="BIZuQq8_NNaNUawFNkEd-5">
          <mxGeometry relative="1" as="geometry">
            <mxPoint x="340" y="640" as="targetPoint" />
            <Array as="points">
              <mxPoint x="340" y="365" />
              <mxPoint x="340" y="640" />
            </Array>
          </mxGeometry>
        </mxCell>
        <mxCell id="BIZuQq8_NNaNUawFNkEd-5" value="山牌は０以上？" style="rhombus;whiteSpace=wrap;html=1;" vertex="1" parent="WIyWlLk6GJQsqaUBKTNV-1">
          <mxGeometry x="150" y="340" width="140" height="50" as="geometry" />
        </mxCell>
        <mxCell id="BIZuQq8_NNaNUawFNkEd-12" value="処理終了,falseを返す。和了は発生しない。" style="rounded=1;whiteSpace=wrap;html=1;sketch=0;" vertex="1" parent="WIyWlLk6GJQsqaUBKTNV-1">
          <mxGeometry x="260" y="640" width="100" height="50" as="geometry" />
        </mxCell>
      </root>
    </mxGraphModel>
  </diagram>
</mxfile>
